<svg viewBox="0 0 544 667" fill="none" xmlns="http://www.w3.org/2000/svg">
  <g clip-path="url(#clip0_1316_106474)">
    <ellipse
      cx="487.501"
      cy="298.5"
      rx="56.5"
      ry="56.5"
      transform="rotate(90 487.501 298.5)"
      fill="url(#paint0_linear_1316_106474)"
    />
    <rect
      x="399.785"
      y="124.892"
      width="64.9013"
      height="64.9013"
      transform="rotate(135 399.785 124.892)"
      fill="url(#paint1_linear_1316_106474)"
    />
    <rect
      x="418.38"
      y="472.443"
      width="124.988"
      height="124.988"
      transform="rotate(-180 418.38 472.443)"
      fill="url(#paint2_linear_1316_106474)"
    />
    <rect
      x="148.988"
      y="635.988"
      width="124.988"
      height="124.988"
      transform="rotate(-180 148.988 635.988)"
      fill="url(#paint3_linear_1316_106474)"
    />
    <path
      fill-rule="evenodd"
      clip-rule="evenodd"
      d="M267.047 566L267.047 646L243.821 646L243.821 566L267.047 566ZM238.66 566L238.66 646L215.434 646L215.434 566L238.66 566ZM210.272 646L210.272 566L187.046 566L187.046 646L210.272 646Z"
      fill="url(#paint4_linear_1316_106474)"
    />
    <path
      fill-rule="evenodd"
      clip-rule="evenodd"
      d="M381.141 259.123C375.668 264.595 375.668 273.467 381.141 278.939C386.613 284.411 395.484 284.411 400.957 278.939C406.429 273.467 406.429 264.595 400.957 259.123C395.484 253.651 386.613 253.651 381.141 259.123ZM359.123 281.14C353.651 286.612 353.651 295.484 359.123 300.956C364.595 306.428 373.467 306.428 378.939 300.956C384.411 295.484 384.411 286.612 378.939 281.14C373.467 275.668 364.595 275.668 359.123 281.14ZM359.123 256.92C353.651 251.448 353.651 242.576 359.123 237.104C364.595 231.632 373.467 231.632 378.939 237.104C384.411 242.576 384.411 251.448 378.939 256.92C373.467 262.392 364.595 262.392 359.123 256.92ZM337.105 259.123C331.633 264.595 331.633 273.467 337.105 278.939C342.577 284.411 351.449 284.411 356.921 278.939C362.393 273.467 362.393 264.595 356.921 259.123C351.449 253.651 342.577 253.651 337.105 259.123Z"
      fill="url(#paint5_linear_1316_106474)"
    />
    <path
      d="M248.067 161.092C254.027 161.092 258.858 165.923 258.858 171.884C258.858 177.844 254.027 182.675 248.067 182.675C242.107 182.675 237.275 177.844 237.275 171.884C237.275 165.923 242.107 161.092 248.067 161.092Z"
      stroke="#2E51ED"
      stroke-width="2.55078"
    />
    <path
      d="M248.067 134.275C254.027 134.275 258.858 139.107 258.858 145.067C258.858 151.027 254.027 155.859 248.067 155.859C242.107 155.859 237.275 151.027 237.275 145.067C237.275 139.107 242.107 134.275 248.067 134.275Z"
      stroke="#2E51ED"
      stroke-width="2.55078"
    />
    <path
      d="M274.883 161.092C280.843 161.092 285.674 165.923 285.674 171.884C285.674 177.844 280.843 182.675 274.883 182.675C268.922 182.675 264.091 177.844 264.091 171.884C264.091 165.923 268.922 161.092 274.883 161.092Z"
      stroke="#2E51ED"
      stroke-width="2.55078"
    />
    <path
      d="M274.883 134.275C280.843 134.275 285.674 139.107 285.674 145.067C285.674 151.027 280.843 155.859 274.883 155.859C268.922 155.859 264.091 151.027 264.091 145.067C264.091 139.107 268.922 134.275 274.883 134.275Z"
      stroke="#2E51ED"
      stroke-width="2.55078"
    />
    <path
      d="M301.698 161.092C307.659 161.092 312.49 165.923 312.49 171.884C312.49 177.844 307.659 182.675 301.698 182.675C295.738 182.675 290.907 177.844 290.907 171.884C290.907 165.923 295.738 161.092 301.698 161.092Z"
      stroke="#2E51ED"
      stroke-width="2.55078"
    />
    <path
      d="M301.698 134.275C307.659 134.275 312.49 139.107 312.49 145.067C312.49 151.027 307.659 155.859 301.698 155.859C295.738 155.859 290.907 151.027 290.907 145.067C290.907 139.107 295.738 134.275 301.698 134.275Z"
      stroke="#2E51ED"
      stroke-width="2.55078"
    />
    <path
      d="M328.514 161.092C334.475 161.092 339.306 165.923 339.306 171.884C339.306 177.844 334.475 182.675 328.514 182.675C322.554 182.675 317.723 177.844 317.723 171.884C317.723 165.923 322.554 161.092 328.514 161.092Z"
      stroke="#2E51ED"
      stroke-width="2.55078"
    />
    <path
      d="M328.514 134.275C334.475 134.275 339.306 139.107 339.306 145.067C339.306 151.027 334.475 155.859 328.514 155.859C322.554 155.859 317.723 151.027 317.723 145.067C317.723 139.107 322.554 134.275 328.514 134.275Z"
      stroke="#2E51ED"
      stroke-width="2.55078"
    />
    <g filter="url(#filter0_ddd_1316_106474)">
      <rect
        x="259.999"
        y="315"
        width="46"
        height="46"
        rx="8"
        fill="url(#paint6_linear_1316_106474)"
        shape-rendering="crispEdges"
      />
      <g clip-path="url(#clip1_1316_106474)">
        <path
          d="M279.975 342.573C278.741 341.412 278.015 339.814 278.015 337.999C278.015 336.184 278.741 334.587 279.903 333.426C280.919 332.409 280.919 330.812 279.903 329.796C278.886 328.779 277.288 328.779 276.272 329.796C274.239 331.901 272.932 334.805 272.932 337.999C272.932 341.194 274.239 344.098 276.344 346.203C277.361 347.22 278.959 347.22 279.975 346.203C280.919 345.187 280.919 343.59 279.975 342.573Z"
          fill="#FAE501"
        />
        <path
          d="M279.975 333.426C281.137 332.192 282.734 331.466 284.55 331.466C286.365 331.466 287.963 332.192 289.124 333.353C290.141 334.37 291.738 334.37 292.755 333.353C293.772 332.337 293.772 330.74 292.755 329.723C290.649 327.691 287.745 326.384 284.55 326.384C281.355 326.384 278.45 327.691 276.344 329.796C275.328 330.812 275.328 332.41 276.344 333.426C277.361 334.37 278.959 334.37 279.975 333.426Z"
          fill="#4FB5E1"
        />
        <path
          d="M289.124 342.574C287.963 343.808 286.365 344.534 284.55 344.534C282.734 344.534 281.137 343.808 279.975 342.646C278.959 341.63 277.361 341.63 276.344 342.646C275.328 343.663 275.328 345.26 276.344 346.276C278.45 348.309 281.355 349.616 284.55 349.616C287.745 349.616 290.649 348.309 292.755 346.204C293.772 345.187 293.772 343.59 292.755 342.574C291.738 341.63 290.141 341.63 289.124 342.574Z"
          fill="#F05751"
        />
        <path
          d="M278.16 334.152C279.564 334.152 280.702 333.015 280.702 331.611C280.702 330.208 279.564 329.07 278.16 329.07C276.757 329.07 275.619 330.208 275.619 331.611C275.619 333.015 276.757 334.152 278.16 334.152Z"
          fill="#0681B6"
        />
        <path
          d="M278.16 346.93C279.564 346.93 280.702 345.792 280.702 344.389C280.702 342.985 279.564 341.848 278.16 341.848C276.757 341.848 275.619 342.985 275.619 344.389C275.619 345.792 276.757 346.93 278.16 346.93Z"
          fill="#CD4739"
        />
      </g>
    </g>
    <g filter="url(#filter1_ddd_1316_106474)">
      <rect
        x="202"
        y="213"
        width="45"
        height="45"
        rx="7.99622"
        fill="url(#paint7_linear_1316_106474)"
        shape-rendering="crispEdges"
      />
      <path
        d="M225.748 231.162C225.315 230.729 224.856 230.265 224.448 229.802C224.067 230.235 223.664 230.63 223.261 231.033C223.164 231.129 223.084 231.242 223.027 231.366C222.938 231.56 222.909 231.778 222.945 231.99C222.945 232.011 222.945 232.033 222.945 232.055C222.982 232.171 223.037 232.281 223.11 232.379C223.122 232.396 223.131 232.413 223.14 232.431C223.404 232.761 224.032 233.367 224.383 233.705L226.464 235.872L227.088 236.531C227.603 237.065 228.067 237.645 228.475 238.264C228.524 238.349 228.602 238.412 228.696 238.442H228.739C228.84 238.425 228.923 238.353 228.956 238.256C229.09 237.82 229.159 237.368 229.159 236.912C229.147 235.857 228.812 234.833 228.202 233.974C227.481 232.968 226.663 232.036 225.758 231.192L225.748 231.162Z"
        fill="#0678BE"
      />
      <path
        d="M226.329 238.139C225.813 237.511 225.315 236.934 224.531 236.099C223.868 236.857 223.261 237.442 222.758 238.036C221.873 238.995 221.932 240.488 222.891 241.373C223.849 242.259 225.343 242.2 226.228 241.241C226.98 240.428 227.065 239.201 226.434 238.291C226.402 238.237 226.368 238.186 226.329 238.139Z"
        fill="#0678BE"
      />
      <path
        d="M223.27 235.071C223.327 235.005 223.327 234.908 223.27 234.841L221.74 233.277L221.41 232.965C221.146 233.273 220.898 233.596 220.67 233.932C220.299 234.466 220.024 235.06 219.855 235.687C219.671 236.408 219.688 237.167 219.907 237.879L219.937 237.944C219.976 238.021 220.019 238.095 220.067 238.166C220.067 238.166 220.245 238.452 220.4 238.465H220.457C220.51 238.453 220.553 238.416 220.573 238.365C220.718 238.062 220.898 237.779 221.111 237.52L221.67 236.839L223.27 235.071Z"
        fill="#0678BE"
      />
      <path
        d="M224.505 222.538C217.346 222.536 211.54 228.337 211.538 235.495C211.536 242.653 217.337 248.46 224.495 248.462C231.654 248.464 237.46 242.663 237.462 235.505C237.462 235.504 237.462 235.502 237.462 235.5C237.462 228.343 231.662 222.54 224.505 222.538ZM224.43 243.721C220.664 243.712 217.614 240.658 217.609 236.891C217.609 233.689 219.746 231.557 221.626 229.672C222.883 228.415 224.083 227.219 224.439 225.872C224.793 227.22 225.995 228.415 227.252 229.672C229.137 231.558 231.268 233.689 231.268 236.891C231.265 240.664 228.204 243.721 224.43 243.721Z"
        fill="#0678BE"
      />
    </g>
    <circle
      cx="247.594"
      cy="466.595"
      r="23.5947"
      transform="rotate(90 247.594 466.595)"
      fill="url(#paint8_linear_1316_106474)"
    />
    <g filter="url(#filter2_ddd_1316_106474)">
      <rect
        x="400.001"
        y="169"
        width="45"
        height="45"
        rx="8"
        fill="url(#paint9_linear_1316_106474)"
        shape-rendering="crispEdges"
      />
      <g clip-path="url(#clip2_1316_106474)">
        <path
          fill-rule="evenodd"
          clip-rule="evenodd"
          d="M411.137 191.5C411.137 185.234 416.235 180.136 422.501 180.136C428.766 180.136 433.864 185.234 433.864 191.5C433.864 197.766 428.766 202.864 422.501 202.864C416.235 202.864 411.137 197.766 411.137 191.5ZM411.658 191.5C411.658 197.478 416.522 202.343 422.501 202.343C428.479 202.343 433.342 197.478 433.342 191.5C433.342 185.521 428.479 180.657 422.501 180.657C416.522 180.657 411.658 185.521 411.658 191.5ZM429.081 191.007C429.081 189.803 428.648 188.968 428.277 188.319C428.239 188.257 428.201 188.195 428.163 188.135C427.714 187.41 427.32 186.774 427.32 186.033C427.32 185.137 428 184.303 428.957 184.303C428.985 184.303 429.012 184.305 429.039 184.307C429.054 184.308 429.068 184.31 429.083 184.31C427.349 182.721 425.038 181.751 422.5 181.751C419.095 181.751 416.099 183.499 414.356 186.145C414.584 186.152 414.8 186.157 414.983 186.157C416.003 186.157 417.581 186.033 417.581 186.033C418.106 186.002 418.168 186.774 417.643 186.836C417.643 186.836 417.115 186.898 416.528 186.929L420.078 197.488L422.211 191.09L420.692 186.929C420.167 186.898 419.67 186.836 419.67 186.836C419.145 186.805 419.206 186.002 419.732 186.033C419.732 186.033 421.341 186.157 422.299 186.157C423.319 186.157 424.897 186.033 424.897 186.033C425.423 186.002 425.485 186.774 424.96 186.836C424.96 186.836 424.43 186.898 423.844 186.929L427.367 197.408L428.339 194.159L428.416 193.913L428.416 193.913C428.799 192.691 429.081 191.79 429.081 191.007ZM412.752 191.499C412.752 195.358 414.995 198.693 418.246 200.273L413.596 187.532C413.055 188.744 412.752 190.086 412.752 191.499ZM419.747 200.851L422.672 192.352L425.668 200.561C425.688 200.61 425.712 200.654 425.738 200.696C424.724 201.052 423.636 201.248 422.501 201.248C421.544 201.248 420.62 201.108 419.747 200.851ZM431.054 186.823C431.096 187.133 431.12 187.467 431.12 187.825C431.12 188.814 430.935 189.926 430.379 191.317L427.401 199.926C430.299 198.236 432.248 195.096 432.248 191.5C432.249 189.805 431.816 188.211 431.054 186.823Z"
          fill="#464342"
        />
      </g>
    </g>
    <g filter="url(#filter3_ddd_1316_106474)">
      <rect
        x="293.999"
        y="514"
        width="51.5039"
        height="51.5039"
        rx="8"
        fill="url(#paint10_linear_1316_106474)"
        shape-rendering="crispEdges"
      />
      <g clip-path="url(#clip3_1316_106474)">
        <path
          d="M328.389 531.757C328.368 531.631 328.264 531.547 328.16 531.547C328.056 531.547 326.227 531.505 326.227 531.505C326.227 531.505 324.689 529.996 324.544 529.85C324.398 529.703 324.087 529.745 323.983 529.787C323.983 529.787 323.692 529.87 323.214 530.017C323.131 529.745 323.006 529.43 322.84 529.095C322.299 528.047 321.489 527.481 320.533 527.481C320.47 527.481 320.408 527.481 320.325 527.502C320.304 527.46 320.263 527.439 320.242 527.397C319.826 526.936 319.286 526.727 318.642 526.748C317.395 526.789 316.148 527.691 315.15 529.305C314.444 530.436 313.903 531.862 313.737 532.972C312.303 533.413 311.305 533.727 311.285 533.748C310.557 533.979 310.536 533.999 310.453 534.691C310.391 535.215 308.479 549.992 308.479 549.992L324.357 552.758L331.236 551.039C331.215 551.019 328.409 531.883 328.389 531.757ZM322.424 530.269C322.05 530.374 321.634 530.52 321.198 530.646C321.198 530.017 321.115 529.116 320.824 528.361C321.759 528.55 322.216 529.619 322.424 530.269ZM320.346 530.918C319.515 531.17 318.6 531.463 317.686 531.736C317.935 530.751 318.434 529.766 319.016 529.116C319.244 528.885 319.556 528.613 319.909 528.445C320.283 529.179 320.367 530.206 320.346 530.918ZM318.662 527.586C318.953 527.586 319.203 527.649 319.411 527.775C319.078 527.963 318.746 528.215 318.434 528.55C317.644 529.409 317.041 530.751 316.792 532.029C316.044 532.26 315.296 532.49 314.61 532.7C315.046 530.688 316.73 527.649 318.662 527.586Z"
          fill="#95BF47"
        />
        <path
          d="M328.16 531.548C328.056 531.548 326.227 531.506 326.227 531.506C326.227 531.506 324.689 529.997 324.544 529.85C324.481 529.787 324.419 529.766 324.336 529.745V552.738L331.215 551.019C331.215 551.019 328.409 531.883 328.389 531.736C328.368 531.631 328.264 531.548 328.16 531.548Z"
          fill="#5E8E3E"
        />
        <path
          d="M320.512 535.111L319.722 538.129C319.722 538.129 318.828 537.71 317.768 537.794C316.21 537.899 316.21 538.884 316.21 539.135C316.293 540.477 319.805 540.77 320.013 543.935C320.158 546.429 318.704 548.127 316.605 548.253C314.069 548.42 312.677 546.911 312.677 546.911L313.217 544.606C313.217 544.606 314.61 545.675 315.732 545.591C316.459 545.549 316.729 544.941 316.709 544.522C316.605 542.761 313.737 542.866 313.55 539.974C313.404 537.542 314.984 535.069 318.475 534.86C319.826 534.755 320.512 535.111 320.512 535.111Z"
          fill="white"
        />
      </g>
    </g>
    <circle
      cx="202.499"
      cy="53.5"
      r="53.5"
      transform="rotate(90 202.499 53.5)"
      fill="url(#paint11_linear_1316_106474)"
    />
    <circle
      cx="194.999"
      cy="413"
      r="68"
      transform="rotate(90 194.999 413)"
      fill="url(#paint12_linear_1316_106474)"
      fill-opacity="0.7"
    />
    <path
      d="M330.181 367.726C328.641 367.726 327.679 366.059 328.449 364.726L345.277 335.577C346.047 334.244 347.972 334.244 348.741 335.577L365.57 364.726C366.34 366.059 365.378 367.726 363.838 367.726L330.181 367.726Z"
      fill="url(#paint13_linear_1316_106474)"
    />
    <path
      d="M65.5678 459.833C64.0281 459.833 63.0659 458.166 63.8357 456.833L89.9964 411.521C90.7662 410.188 92.6907 410.188 93.4605 411.521L119.621 456.833C120.391 458.166 119.429 459.833 117.889 459.833L65.5678 459.833Z"
      fill="url(#paint14_linear_1316_106474)"
    />
    <ellipse
      cx="118"
      cy="190"
      rx="56"
      ry="56"
      transform="rotate(90 118 190)"
      fill="url(#paint15_linear_1316_106474)"
      fill-opacity="0.7"
    />
    <circle cx="154.5" cy="98.5" r="19.5" transform="rotate(90 154.5 98.5)" fill="url(#paint16_linear_1316_106474)" />
    <path
      fill-rule="evenodd"
      clip-rule="evenodd"
      d="M202 298H56V371H85.2005C85.2008 346.81 104.811 327.2 129 327.2C153.19 327.2 172.8 346.81 172.8 371H202V298Z"
      fill="url(#paint17_linear_1316_106474)"
    />
    <path
      d="M3.05212 264.514C0.847021 264.514 -0.531165 262.127 0.571385 260.218L26.9436 214.54C28.0461 212.63 30.8025 212.63 31.9051 214.54L58.2773 260.218C59.3798 262.127 58.0016 264.514 55.7965 264.514L3.05212 264.514Z"
      fill="url(#paint18_linear_1316_106474)"
    />
    <path
      fill-rule="evenodd"
      clip-rule="evenodd"
      d="M13 65.08L13 79.9403L26.36 79.9403L26.36 65.08L13 65.08ZM13 82.9403L26.36 82.9403L26.36 96.3003L13 96.3003L13 82.9403ZM29.36 82.9403L29.36 96.3003L44.22 96.3003L44.22 82.9403L29.36 82.9403ZM47.22 82.9403L47.22 96.3003L62.0803 96.3003L62.0803 82.9403L47.22 82.9403ZM79.9402 96.3003L65.0803 96.3003L65.0803 82.9403L79.9402 82.9403L79.9402 96.3003ZM82.9402 96.3003L96.3002 96.3003L96.3002 82.9403L82.9402 82.9403L82.9402 96.3003ZM82.9402 79.9403L96.3002 79.9403L96.3002 65.08L82.9402 65.08L82.9402 79.9403ZM82.9402 62.08L96.3002 62.08L96.3002 47.2201L82.9402 47.2201L82.9402 62.08ZM79.9402 47.2201L79.9402 62.08L65.0802 62.08L65.0802 47.2201L79.9402 47.2201ZM82.9402 44.2201L96.3002 44.2201L96.3002 29.3601L82.9402 29.3601L82.9402 44.2201ZM79.9402 29.3601L79.9402 44.2201L65.0802 44.2201L65.0802 29.3601L79.9402 29.3601ZM82.9402 26.3601L96.3002 26.3601L96.3002 13.0001L82.9402 13.0001L82.9402 26.3601ZM79.9402 13.0001L79.9402 26.3601L65.0802 26.3601L65.0802 13.0001L79.9402 13.0001ZM79.9402 65.08L79.9402 79.9403L65.0803 79.9403L65.0802 65.08L79.9402 65.08ZM62.0802 62.08L62.0802 47.2201L47.22 47.2201L47.22 62.08L62.0802 62.08ZM62.0802 44.2201L62.0802 29.3601L47.22 29.3601L47.22 44.2201L62.0802 44.2201ZM62.0802 26.3601L62.0802 13.0001L47.22 13.0001L47.22 26.3601L62.0802 26.3601ZM62.0803 79.9403L62.0802 65.08L47.22 65.08L47.22 79.9403L62.0803 79.9403ZM44.22 65.08L44.22 79.9403L29.36 79.9403L29.36 65.08L44.22 65.08ZM44.22 47.2201L44.22 62.08L29.36 62.08L29.36 47.2201L44.22 47.2201ZM44.22 29.3601L44.22 44.2201L29.36 44.2201L29.36 29.3601L44.22 29.3601ZM44.22 13.0001L44.22 26.3601L29.36 26.3601L29.36 13.0001L44.22 13.0001ZM26.36 44.2201L26.36 29.3601L13 29.3601L13 44.2201L26.36 44.2201ZM26.36 26.3601L26.36 13.0001L13 13.0001L13 26.3601L26.36 26.3601ZM26.36 62.08L26.36 47.2201L13 47.2201L13 62.08L26.36 62.08ZM10 96.3003L10 99.3003L13 99.3003L96.3002 99.3003L99.3002 99.3003L99.3002 96.3003L99.3002 13.0001L99.3002 10.0001L96.3002 10.0001L13 10.0001L10 10.0001L10 13.0001L10 96.3003Z"
      fill="url(#paint19_linear_1316_106474)"
    />
  </g>
  <defs>
    <filter
      id="filter0_ddd_1316_106474"
      x="246.06"
      y="303.848"
      width="73.8788"
      height="73.8788"
      filterUnits="userSpaceOnUse"
      color-interpolation-filters="sRGB"
    >
      <feFlood flood-opacity="0" result="BackgroundImageFix" />
      <feColorMatrix
        in="SourceAlpha"
        type="matrix"
        values="0 0 0 0 0 0 0 0 0 0 0 0 0 0 0 0 0 0 127 0"
        result="hardAlpha"
      />
      <feOffset dy="2.78788" />
      <feGaussianBlur stdDeviation="6.9697" />
      <feColorMatrix type="matrix" values="0 0 0 0 0.2 0 0 0 0 0.215686 0 0 0 0 0.231373 0 0 0 0.04 0" />
      <feBlend mode="normal" in2="BackgroundImageFix" result="effect1_dropShadow_1316_106474" />
      <feColorMatrix
        in="SourceAlpha"
        type="matrix"
        values="0 0 0 0 0 0 0 0 0 0 0 0 0 0 0 0 0 0 127 0"
        result="hardAlpha"
      />
      <feOffset dy="3.71717" />
      <feGaussianBlur stdDeviation="5.57576" />
      <feColorMatrix type="matrix" values="0 0 0 0 0.2 0 0 0 0 0.215686 0 0 0 0 0.231373 0 0 0 0.04 0" />
      <feBlend mode="normal" in2="effect1_dropShadow_1316_106474" result="effect2_dropShadow_1316_106474" />
      <feColorMatrix
        in="SourceAlpha"
        type="matrix"
        values="0 0 0 0 0 0 0 0 0 0 0 0 0 0 0 0 0 0 127 0"
        result="hardAlpha"
      />
      <feOffset dy="1.85859" />
      <feGaussianBlur stdDeviation="1.85859" />
      <feComposite in2="hardAlpha" operator="out" />
      <feColorMatrix type="matrix" values="0 0 0 0 0 0 0 0 0 0 0 0 0 0 0 0 0 0 0.08 0" />
      <feBlend mode="normal" in2="effect2_dropShadow_1316_106474" result="effect3_dropShadow_1316_106474" />
      <feBlend mode="normal" in="SourceGraphic" in2="effect3_dropShadow_1316_106474" result="shape" />
    </filter>
    <filter
      id="filter1_ddd_1316_106474"
      x="188.067"
      y="201.854"
      width="72.8656"
      height="72.8656"
      filterUnits="userSpaceOnUse"
      color-interpolation-filters="sRGB"
    >
      <feFlood flood-opacity="0" result="BackgroundImageFix" />
      <feColorMatrix
        in="SourceAlpha"
        type="matrix"
        values="0 0 0 0 0 0 0 0 0 0 0 0 0 0 0 0 0 0 127 0"
        result="hardAlpha"
      />
      <feOffset dy="2.78656" />
      <feGaussianBlur stdDeviation="6.9664" />
      <feColorMatrix type="matrix" values="0 0 0 0 0.2 0 0 0 0 0.215686 0 0 0 0 0.231373 0 0 0 0.04 0" />
      <feBlend mode="normal" in2="BackgroundImageFix" result="effect1_dropShadow_1316_106474" />
      <feColorMatrix
        in="SourceAlpha"
        type="matrix"
        values="0 0 0 0 0 0 0 0 0 0 0 0 0 0 0 0 0 0 127 0"
        result="hardAlpha"
      />
      <feOffset dy="3.71541" />
      <feGaussianBlur stdDeviation="5.57312" />
      <feColorMatrix type="matrix" values="0 0 0 0 0.2 0 0 0 0 0.215686 0 0 0 0 0.231373 0 0 0 0.04 0" />
      <feBlend mode="normal" in2="effect1_dropShadow_1316_106474" result="effect2_dropShadow_1316_106474" />
      <feColorMatrix
        in="SourceAlpha"
        type="matrix"
        values="0 0 0 0 0 0 0 0 0 0 0 0 0 0 0 0 0 0 127 0"
        result="hardAlpha"
      />
      <feOffset dy="1.85771" />
      <feGaussianBlur stdDeviation="1.85771" />
      <feComposite in2="hardAlpha" operator="out" />
      <feColorMatrix type="matrix" values="0 0 0 0 0 0 0 0 0 0 0 0 0 0 0 0 0 0 0.08 0" />
      <feBlend mode="normal" in2="effect2_dropShadow_1316_106474" result="effect3_dropShadow_1316_106474" />
      <feBlend mode="normal" in="SourceGraphic" in2="effect3_dropShadow_1316_106474" result="shape" />
    </filter>
    <filter
      id="filter2_ddd_1316_106474"
      x="386.365"
      y="158.091"
      width="72.2727"
      height="72.2727"
      filterUnits="userSpaceOnUse"
      color-interpolation-filters="sRGB"
    >
      <feFlood flood-opacity="0" result="BackgroundImageFix" />
      <feColorMatrix
        in="SourceAlpha"
        type="matrix"
        values="0 0 0 0 0 0 0 0 0 0 0 0 0 0 0 0 0 0 127 0"
        result="hardAlpha"
      />
      <feOffset dy="2.72727" />
      <feGaussianBlur stdDeviation="6.81818" />
      <feColorMatrix type="matrix" values="0 0 0 0 0.2 0 0 0 0 0.215686 0 0 0 0 0.231373 0 0 0 0.04 0" />
      <feBlend mode="normal" in2="BackgroundImageFix" result="effect1_dropShadow_1316_106474" />
      <feColorMatrix
        in="SourceAlpha"
        type="matrix"
        values="0 0 0 0 0 0 0 0 0 0 0 0 0 0 0 0 0 0 127 0"
        result="hardAlpha"
      />
      <feOffset dy="3.63636" />
      <feGaussianBlur stdDeviation="5.45455" />
      <feColorMatrix type="matrix" values="0 0 0 0 0.2 0 0 0 0 0.215686 0 0 0 0 0.231373 0 0 0 0.04 0" />
      <feBlend mode="normal" in2="effect1_dropShadow_1316_106474" result="effect2_dropShadow_1316_106474" />
      <feColorMatrix
        in="SourceAlpha"
        type="matrix"
        values="0 0 0 0 0 0 0 0 0 0 0 0 0 0 0 0 0 0 127 0"
        result="hardAlpha"
      />
      <feOffset dy="1.81818" />
      <feGaussianBlur stdDeviation="1.81818" />
      <feComposite in2="hardAlpha" operator="out" />
      <feColorMatrix type="matrix" values="0 0 0 0 0 0 0 0 0 0 0 0 0 0 0 0 0 0 0.08 0" />
      <feBlend mode="normal" in2="effect2_dropShadow_1316_106474" result="effect3_dropShadow_1316_106474" />
      <feBlend mode="normal" in="SourceGraphic" in2="effect3_dropShadow_1316_106474" result="shape" />
    </filter>
    <filter
      id="filter3_ddd_1316_106474"
      x="278.392"
      y="501.514"
      width="82.7184"
      height="82.7184"
      filterUnits="userSpaceOnUse"
      color-interpolation-filters="sRGB"
    >
      <feFlood flood-opacity="0" result="BackgroundImageFix" />
      <feColorMatrix
        in="SourceAlpha"
        type="matrix"
        values="0 0 0 0 0 0 0 0 0 0 0 0 0 0 0 0 0 0 127 0"
        result="hardAlpha"
      />
      <feOffset dy="3.12145" />
      <feGaussianBlur stdDeviation="7.80362" />
      <feColorMatrix type="matrix" values="0 0 0 0 0.2 0 0 0 0 0.215686 0 0 0 0 0.231373 0 0 0 0.04 0" />
      <feBlend mode="normal" in2="BackgroundImageFix" result="effect1_dropShadow_1316_106474" />
      <feColorMatrix
        in="SourceAlpha"
        type="matrix"
        values="0 0 0 0 0 0 0 0 0 0 0 0 0 0 0 0 0 0 127 0"
        result="hardAlpha"
      />
      <feOffset dy="4.16193" />
      <feGaussianBlur stdDeviation="6.2429" />
      <feColorMatrix type="matrix" values="0 0 0 0 0.2 0 0 0 0 0.215686 0 0 0 0 0.231373 0 0 0 0.04 0" />
      <feBlend mode="normal" in2="effect1_dropShadow_1316_106474" result="effect2_dropShadow_1316_106474" />
      <feColorMatrix
        in="SourceAlpha"
        type="matrix"
        values="0 0 0 0 0 0 0 0 0 0 0 0 0 0 0 0 0 0 127 0"
        result="hardAlpha"
      />
      <feOffset dy="2.08097" />
      <feGaussianBlur stdDeviation="2.08097" />
      <feComposite in2="hardAlpha" operator="out" />
      <feColorMatrix type="matrix" values="0 0 0 0 0 0 0 0 0 0 0 0 0 0 0 0 0 0 0.08 0" />
      <feBlend mode="normal" in2="effect2_dropShadow_1316_106474" result="effect3_dropShadow_1316_106474" />
      <feBlend mode="normal" in="SourceGraphic" in2="effect3_dropShadow_1316_106474" result="shape" />
    </filter>
    <linearGradient
      id="paint0_linear_1316_106474"
      x1="487.501"
      y1="242"
      x2="487.501"
      y2="355"
      gradientUnits="userSpaceOnUse"
    >
      <stop stop-color="#32E6E2" />
      <stop offset="1" stop-color="#2E51ED" stop-opacity="0" />
    </linearGradient>
    <linearGradient
      id="paint1_linear_1316_106474"
      x1="399.785"
      y1="124.892"
      x2="469.436"
      y2="243.614"
      gradientUnits="userSpaceOnUse"
    >
      <stop stop-color="#3AC364" />
      <stop offset="1" stop-color="#2E51ED" stop-opacity="0" />
    </linearGradient>
    <linearGradient
      id="paint2_linear_1316_106474"
      x1="418.38"
      y1="472.443"
      x2="552.514"
      y2="701.081"
      gradientUnits="userSpaceOnUse"
    >
      <stop stop-color="#3AC364" />
      <stop offset="1" stop-color="#2E51ED" stop-opacity="0" />
    </linearGradient>
    <linearGradient
      id="paint3_linear_1316_106474"
      x1="92.9766"
      y1="765.977"
      x2="279.977"
      y2="698.977"
      gradientUnits="userSpaceOnUse"
    >
      <stop stop-color="#2E51ED" />
      <stop offset="1" stop-color="#2E51ED" stop-opacity="0" />
    </linearGradient>
    <linearGradient
      id="paint4_linear_1316_106474"
      x1="267.047"
      y1="606"
      x2="187.046"
      y2="606"
      gradientUnits="userSpaceOnUse"
    >
      <stop stop-color="#14D8D4" />
      <stop offset="1" stop-color="#80ABFA" stop-opacity="0" />
    </linearGradient>
    <linearGradient
      id="paint5_linear_1316_106474"
      x1="405.061"
      y1="269.03"
      x2="304.996"
      y2="269.232"
      gradientUnits="userSpaceOnUse"
    >
      <stop stop-color="#3AC364" />
      <stop offset="1" stop-color="#2E51ED" stop-opacity="0" />
    </linearGradient>
    <linearGradient
      id="paint6_linear_1316_106474"
      x1="282.999"
      y1="315"
      x2="282.999"
      y2="361"
      gradientUnits="userSpaceOnUse"
    >
      <stop stop-color="white" />
      <stop offset="1" stop-color="#FAFBFB" />
    </linearGradient>
    <linearGradient
      id="paint7_linear_1316_106474"
      x1="224.5"
      y1="213"
      x2="224.5"
      y2="258"
      gradientUnits="userSpaceOnUse"
    >
      <stop stop-color="white" />
      <stop offset="1" stop-color="#FAFBFB" />
    </linearGradient>
    <linearGradient
      id="paint8_linear_1316_106474"
      x1="247.594"
      y1="443"
      x2="247.594"
      y2="490.189"
      gradientUnits="userSpaceOnUse"
    >
      <stop stop-color="#32E6E2" />
      <stop offset="1" stop-color="#2E51ED" stop-opacity="0" />
    </linearGradient>
    <linearGradient
      id="paint9_linear_1316_106474"
      x1="422.501"
      y1="169"
      x2="422.501"
      y2="214"
      gradientUnits="userSpaceOnUse"
    >
      <stop stop-color="white" />
      <stop offset="1" stop-color="#FAFBFB" />
    </linearGradient>
    <linearGradient
      id="paint10_linear_1316_106474"
      x1="319.751"
      y1="514"
      x2="319.751"
      y2="565.504"
      gradientUnits="userSpaceOnUse"
    >
      <stop stop-color="white" />
      <stop offset="1" stop-color="#FAFBFB" />
    </linearGradient>
    <linearGradient
      id="paint11_linear_1316_106474"
      x1="127.31"
      y1="-8.41894e-07"
      x2="255.999"
      y2="141.703"
      gradientUnits="userSpaceOnUse"
    >
      <stop stop-color="#3AC364" />
      <stop offset="1" stop-color="#2E51ED" stop-opacity="0" />
    </linearGradient>
    <linearGradient
      id="paint12_linear_1316_106474"
      x1="194.999"
      y1="345"
      x2="194.999"
      y2="481"
      gradientUnits="userSpaceOnUse"
    >
      <stop stop-color="#2E51ED" stop-opacity="0.53" />
      <stop offset="1" stop-color="#2E51ED" stop-opacity="0" />
    </linearGradient>
    <linearGradient
      id="paint13_linear_1316_106474"
      x1="326.716"
      y1="367.726"
      x2="367.302"
      y2="344.293"
      gradientUnits="userSpaceOnUse"
    >
      <stop stop-color="#14D8D4" />
      <stop offset="1" stop-color="#80ABFA" stop-opacity="0" />
    </linearGradient>
    <linearGradient
      id="paint14_linear_1316_106474"
      x1="62.1036"
      y1="459.833"
      x2="121.353"
      y2="425.625"
      gradientUnits="userSpaceOnUse"
    >
      <stop stop-color="#14D8D4" />
      <stop offset="1" stop-color="#80ABFA" stop-opacity="0" />
    </linearGradient>
    <linearGradient id="paint15_linear_1316_106474" x1="118" y1="134" x2="118" y2="246" gradientUnits="userSpaceOnUse">
      <stop stop-color="#232A84" />
      <stop offset="1" stop-color="#2036A1" stop-opacity="0" />
    </linearGradient>
    <linearGradient
      id="paint16_linear_1316_106474"
      x1="154.5"
      y1="79"
      x2="154.5"
      y2="118"
      gradientUnits="userSpaceOnUse"
    >
      <stop stop-color="#2E51ED" />
      <stop offset="1" stop-color="#2036A1" stop-opacity="0" />
    </linearGradient>
    <linearGradient
      id="paint17_linear_1316_106474"
      x1="202"
      y1="319.9"
      x2="-2.4"
      y2="356.4"
      gradientUnits="userSpaceOnUse"
    >
      <stop stop-color="#3AC364" />
      <stop offset="1" stop-color="#2E51ED" stop-opacity="0" />
    </linearGradient>
    <linearGradient
      id="paint18_linear_1316_106474"
      x1="-1.90935"
      y1="264.514"
      x2="60.758"
      y2="228.333"
      gradientUnits="userSpaceOnUse"
    >
      <stop stop-color="#2E51ED" />
      <stop offset="1" stop-color="#2E51ED" stop-opacity="0" />
    </linearGradient>
    <linearGradient
      id="paint19_linear_1316_106474"
      x1="133.948"
      y1="-24.8525"
      x2="5.25499"
      y2="103.841"
      gradientUnits="userSpaceOnUse"
    >
      <stop stop-color="#64D87F" />
      <stop offset="1" stop-color="#14D8D4" stop-opacity="0" />
    </linearGradient>
    <clipPath id="clip0_1316_106474">
      <rect width="544" height="667" fill="white" />
    </clipPath>
    <clipPath id="clip1_1316_106474">
      <rect width="23.2323" height="23.2323" fill="white" transform="translate(271.383 326.384)" />
    </clipPath>
    <clipPath id="clip2_1316_106474">
      <rect width="22.7273" height="22.7273" fill="white" transform="translate(411.137 180.136)" />
    </clipPath>
    <clipPath id="clip3_1316_106474">
      <rect width="26.0121" height="26.0121" fill="white" transform="translate(306.745 526.746)" />
    </clipPath>
  </defs>
</svg>